<svg width="739" height="356" viewBox="0 0 739 356" fill="none" xmlns="http://www.w3.org/2000/svg">
<g filter="url(#filter0_f_31_165)">
<path d="M638.906 266.494C628.199 216.532 607.857 225.655 591.258 178.374C583.158 155.3 573.296 127.496 553.848 113.836C506.662 80.6946 451.502 116.389 412.492 159.368C383.262 191.572 361.346 218.566 321.098 216.522C276.65 214.265 228.373 207.939 190.095 248.328C153.833 286.591 114.131 347.989 102.071 401.838C94.9261 433.739 113.337 448.058 127.771 469.927C150.027 503.645 160.923 558.019 191.038 582.931C221.115 607.813 265.493 592.082 295.969 563.902C329.108 533.259 354.124 491.333 388.084 461.118C412.402 439.482 429.283 405.431 456.595 388.579C475.043 377.197 489.251 389.513 507.114 386.558C541.421 380.885 568.178 391.141 602.142 369.837C635.468 348.934 636.291 302.46 638.906 266.494Z" fill="#DA47FF" fill-opacity="0.3"/>
</g>
<defs>
<filter id="filter0_f_31_165" x="0.480286" y="0.831474" width="738.426" height="694.508" filterUnits="userSpaceOnUse" color-interpolation-filters="sRGB">
<feFlood flood-opacity="0" result="BackgroundImageFix"/>
<feBlend mode="normal" in="SourceGraphic" in2="BackgroundImageFix" result="shape"/>
<feGaussianBlur stdDeviation="50" result="effect1_foregroundBlur_31_165"/>
</filter>
</defs>
</svg>
