<svg width="494" height="419" viewBox="0 0 494 419" fill="none" xmlns="http://www.w3.org/2000/svg">
<g filter="url(#filter0_f_31_168)">
<path d="M158.725 318.631C130.795 321.5 117.63 297.512 102.981 277.671C100.189 278.432 100.179 274.009 100.616 272.477C102.047 267.47 103.661 265.175 106.6 260.996L106.668 260.898C110.708 255.154 113.779 249.333 118.124 243.733C123.285 237.081 127.711 230.366 131.09 222.639C132.124 220.276 132.949 217.664 134.149 215.38C134.736 214.264 136.593 211.938 137.066 211.018C136.858 210.957 136.666 210.838 136.784 210.767C137.222 210.505 137.257 210.646 137.066 211.018C137.182 211.052 137.303 211.068 137.377 211.048C141.24 209.988 145.916 204.1 148.909 201.593C152.385 198.683 154.935 196.809 159.19 194.787C173.695 187.893 188.012 180.459 203.054 174.75C209.044 172.477 211.79 170.405 216.217 165.519C225.15 155.66 234.259 146.056 244.754 137.807C263.586 123.005 287.523 112.995 309.921 104.663C319.318 101.167 329.474 98.8621 339.549 101.282C351.445 104.14 363.572 109.057 374.53 114.505C382.434 118.436 391.315 123.138 393.062 132.64C395.435 145.551 390.442 158.729 384.954 169.962C374.965 190.411 362.409 210.958 348.201 228.684C326.287 256.027 297.011 274.101 265.001 287.974C245.411 296.464 222.363 303.948 201.635 309.484C198.516 310.317 164.942 317.993 158.725 318.631Z" fill="#2F92D0"/>
</g>
<defs>
<filter id="filter0_f_31_168" x="0.405212" y="0.282516" width="493.263" height="418.583" filterUnits="userSpaceOnUse" color-interpolation-filters="sRGB">
<feFlood flood-opacity="0" result="BackgroundImageFix"/>
<feBlend mode="normal" in="SourceGraphic" in2="BackgroundImageFix" result="shape"/>
<feGaussianBlur stdDeviation="50" result="effect1_foregroundBlur_31_168"/>
</filter>
</defs>
</svg>
