<svg width="348" height="351" viewBox="0 0 348 351" fill="none" xmlns="http://www.w3.org/2000/svg">
<g filter="url(#filter0_f_31_170)">
<path d="M72.5526 109.279C64.156 89.6763 79.3907 81.4872 91.1534 72.0905C89.9545 70.1112 93.3026 70.2872 94.5602 70.656C98.6711 71.8617 100.769 73.0825 104.589 75.306L104.678 75.3578C109.929 78.4138 115.022 80.7977 120.232 84.0606C126.42 87.9367 132.492 91.3026 139.097 93.98C141.117 94.7989 143.279 95.4826 145.276 96.4148C146.252 96.8705 148.428 98.2624 149.229 98.6304C149.229 98.4877 149.277 98.3584 149.357 98.444C149.653 98.7604 149.554 98.7793 149.229 98.6304C149.23 98.7098 149.244 98.7933 149.276 98.8461C150.94 101.585 156.442 105.091 159.007 107.283C161.986 109.828 163.973 111.684 166.452 114.736C174.906 125.141 183.726 135.436 191.402 146.166C194.459 150.438 196.64 152.44 201.327 155.731C210.784 162.371 220.088 169.124 228.674 176.786C244.081 190.537 256.996 207.65 268.298 223.619C273.039 230.32 277.048 237.5 277.46 244.428C277.947 252.608 276.925 260.864 275.24 268.282C274.024 273.633 272.442 279.633 265.634 280.458C256.385 281.578 245.292 277.549 235.561 273.255C217.848 265.439 199.488 255.829 182.897 245.183C157.305 228.762 137.093 207.591 119.453 184.686C108.657 170.668 97.8534 154.28 89.042 139.591C87.7164 137.381 74.4215 113.642 72.5526 109.279Z" fill="#2F92D0"/>
</g>
<defs>
<filter id="filter0_f_31_170" x="0.133545" y="0.423737" width="347.448" height="350.224" filterUnits="userSpaceOnUse" color-interpolation-filters="sRGB">
<feFlood flood-opacity="0" result="BackgroundImageFix"/>
<feBlend mode="normal" in="SourceGraphic" in2="BackgroundImageFix" result="shape"/>
<feGaussianBlur stdDeviation="35" result="effect1_foregroundBlur_31_170"/>
</filter>
</defs>
</svg>
