<svg width="373" height="546" viewBox="0 0 373 546" fill="none" xmlns="http://www.w3.org/2000/svg">
<g filter="url(#filter0_f_31_169)">
<path d="M182.211 114.644C201.427 91.4891 227.902 101.4 252.652 106.798C254.247 104.093 257.295 107.72 258.016 109.305C260.372 114.485 260.725 117.573 261.368 123.196L261.383 123.327C262.268 131.056 263.939 138.127 264.492 145.964C265.149 155.273 266.407 164.088 269.154 172.954C269.995 175.665 271.164 178.426 271.823 181.197C272.145 182.551 272.335 185.846 272.608 186.953C272.808 186.849 273.036 186.803 272.995 186.95C272.843 187.492 272.719 187.401 272.608 186.953C272.497 187.012 272.395 187.088 272.352 187.161C270.151 190.909 270.65 199.229 270.103 203.518C269.466 208.498 268.82 211.936 266.982 216.766C260.717 233.232 254.966 250.002 247.48 265.894C244.498 272.223 243.839 275.97 243.839 283.283C243.839 298.036 243.53 312.712 241.239 327.305C237.127 353.492 225.849 379.543 214.585 403.068C209.86 412.938 203.739 422.395 194.433 427.908C183.445 434.417 170.866 439.407 158.808 443.088C150.111 445.744 140.142 448.493 132.285 441.984C121.611 433.142 116.341 418.594 112.782 405.276C106.305 381.033 101.707 354.798 100.301 329.651C98.131 290.862 107.917 254.21 122.664 218.974C131.689 197.409 144.029 174.097 155.948 154.113C157.741 151.107 177.934 119.798 182.211 114.644Z" fill="#66F6FF" fill-opacity="0.69"/>
</g>
<defs>
<filter id="filter0_f_31_169" x="0" y="0" width="373" height="546" filterUnits="userSpaceOnUse" color-interpolation-filters="sRGB">
<feFlood flood-opacity="0" result="BackgroundImageFix"/>
<feBlend mode="normal" in="SourceGraphic" in2="BackgroundImageFix" result="shape"/>
<feGaussianBlur stdDeviation="50" result="effect1_foregroundBlur_31_169"/>
</filter>
</defs>
</svg>
