<svg width="473" height="345" viewBox="0 0 473 345" fill="none" xmlns="http://www.w3.org/2000/svg">
<g filter="url(#filter0_f_31_171)">
<path d="M75.5702 7.17142C60.673 -21.9716 82.916 -32.096 99.7536 -44.339C97.7162 -47.3199 102.821 -46.7003 104.771 -46.0317C111.147 -43.8461 114.466 -41.8589 120.512 -38.2395L120.653 -38.1552C128.962 -33.1808 136.958 -29.1913 145.227 -23.9235C155.05 -17.6657 164.64 -12.1552 174.965 -7.57775C178.123 -6.17774 181.481 -4.95689 184.617 -3.39608C186.149 -2.63329 189.606 -0.39114 190.863 0.226273C190.848 0.0209193 190.906 -0.160136 191.037 -0.0280937C191.521 0.459926 191.372 0.476135 190.863 0.226273C190.872 0.340614 190.904 0.462481 190.958 0.542011C193.785 4.66733 202.524 10.3172 206.66 13.7535C211.463 17.7445 214.684 20.6345 218.783 25.2996C232.761 41.205 247.284 56.9936 260.115 73.2815C265.225 79.768 268.757 82.8882 276.236 88.1393C291.326 98.7342 306.196 109.475 320.074 121.447C344.978 142.93 366.466 168.983 385.378 193.212C393.312 203.378 400.186 214.155 401.57 224.176C403.204 236.006 402.555 247.781 400.807 258.278C399.546 265.849 397.8 274.316 387.55 274.759C373.624 275.36 356.335 268.345 341.086 261.098C313.328 247.907 284.392 232.061 258.029 214.919C217.362 188.476 184.349 155.782 155.051 120.874C137.121 99.5102 118.92 74.7326 103.93 52.6191C101.675 49.2924 78.8859 13.6578 75.5702 7.17142Z" fill="#66F6FF" fill-opacity="0.6"/>
</g>
<defs>
<filter id="filter0_f_31_171" x="0.667526" y="-116.585" width="471.843" height="461.38" filterUnits="userSpaceOnUse" color-interpolation-filters="sRGB">
<feFlood flood-opacity="0" result="BackgroundImageFix"/>
<feBlend mode="normal" in="SourceGraphic" in2="BackgroundImageFix" result="shape"/>
<feGaussianBlur stdDeviation="35" result="effect1_foregroundBlur_31_171"/>
</filter>
</defs>
</svg>
