<svg width="490" height="397" viewBox="0 0 490 397" fill="none" xmlns="http://www.w3.org/2000/svg">
<g filter="url(#filter0_f_31_173)">
<path d="M935.187 288.545C898.656 234.22 867.34 235.976 821.753 182.2C799.505 155.956 772.526 124.295 734.392 103.394C641.872 52.6836 560.968 68.5005 510.243 97.5796C472.235 119.368 444.781 138.578 375.465 121.782C298.916 103.232 214.354 79.1759 163.929 105.91C116.159 131.237 71 178.645 70.1672 228.557C69.6739 258.124 106.281 279.311 138.878 306.658C189.139 348.824 227.606 407.668 288.031 443.826C348.381 479.94 418.226 480.316 459.828 463.043C505.068 444.261 532.337 411.121 579.13 393.071C612.638 380.145 628.931 351.972 669.292 344.97C696.553 340.241 725.267 357.867 754.618 361.426C810.987 368.261 860.326 388.405 910.388 379.346C959.511 370.458 943.899 323.873 935.187 288.545Z" fill="#371761" fill-opacity="0.71"/>
</g>
<defs>
<filter id="filter0_f_31_173" x="0.162277" y="0.449741" width="1014.46" height="543.694" filterUnits="userSpaceOnUse" color-interpolation-filters="sRGB">
<feFlood flood-opacity="0" result="BackgroundImageFix"/>
<feBlend mode="normal" in="SourceGraphic" in2="BackgroundImageFix" result="shape"/>
<feGaussianBlur stdDeviation="35" result="effect1_foregroundBlur_31_173"/>
</filter>
</defs>
</svg>
