<svg width="1015" height="545" viewBox="0 0 1015 545" fill="none" xmlns="http://www.w3.org/2000/svg">
<g filter="url(#filter0_f_31_172)">
<path d="M935.187 288.68C898.656 234.355 867.34 236.112 821.753 182.335C799.505 156.091 772.526 124.43 734.392 103.529C641.872 52.819 560.968 68.6359 510.243 97.715C472.235 119.504 444.781 138.714 375.465 121.917C298.916 103.368 214.354 79.3113 163.929 106.046C116.159 131.372 71 178.781 70.1672 228.692C69.6739 258.26 106.281 279.446 138.878 306.793C189.139 348.959 227.606 407.803 288.031 443.962C348.381 480.075 418.226 480.451 459.828 463.179C505.068 444.396 532.337 411.257 579.13 393.206C612.638 380.281 628.931 352.107 669.292 345.105C696.553 340.376 725.267 358.002 754.618 361.561C810.987 368.397 860.326 388.54 910.388 379.481C959.511 370.593 943.899 324.008 935.187 288.68Z" fill="#371761" fill-opacity="0.71"/>
</g>
<defs>
<filter id="filter0_f_31_172" x="0.162231" y="0.585114" width="1014.46" height="543.694" filterUnits="userSpaceOnUse" color-interpolation-filters="sRGB">
<feFlood flood-opacity="0" result="BackgroundImageFix"/>
<feBlend mode="normal" in="SourceGraphic" in2="BackgroundImageFix" result="shape"/>
<feGaussianBlur stdDeviation="35" result="effect1_foregroundBlur_31_172"/>
</filter>
</defs>
</svg>
