<svg width="572" height="551" viewBox="0 0 572 551" fill="none" xmlns="http://www.w3.org/2000/svg">
<g filter="url(#filter0_f_31_167)">
<path d="M501.724 204.719C493.836 163.827 477.51 171.58 464.893 132.966C458.736 114.122 451.236 91.4157 435.915 80.4482C398.745 53.8389 354.335 83.8618 322.698 119.66C298.993 146.483 281.184 168.933 249.141 167.772C213.754 166.491 175.369 161.917 144.35 195.579C114.963 227.468 82.5394 278.4 72.2365 322.778C66.133 349.067 80.6179 360.589 91.8376 378.362C109.137 405.766 117.119 450.278 140.793 470.349C164.438 490.396 200.001 476.906 224.646 453.372C251.446 427.78 271.918 393.028 299.366 367.778C319.021 349.696 332.909 321.515 354.889 307.325C369.734 297.74 380.896 307.671 395.168 305.015C422.576 299.914 443.764 307.992 471.1 290.06C497.923 272.464 499.177 234.289 501.724 204.719Z" fill="#DA47FF"/>
</g>
<defs>
<filter id="filter0_f_31_167" x="0.789551" y="0.277863" width="570.934" height="549.812" filterUnits="userSpaceOnUse" color-interpolation-filters="sRGB">
<feFlood flood-opacity="0" result="BackgroundImageFix"/>
<feBlend mode="normal" in="SourceGraphic" in2="BackgroundImageFix" result="shape"/>
<feGaussianBlur stdDeviation="35" result="effect1_foregroundBlur_31_167"/>
</filter>
</defs>
</svg>
