<svg width="475" height="781" viewBox="0 0 475 781" fill="none" xmlns="http://www.w3.org/2000/svg">
<g filter="url(#filter0_f_31_166)">
<path d="M210.742 306.38C182.122 276.235 46.94 65.8629 74.2404 70.062C119.859 70.062 166.607 78.9852 211.652 84.759C261.752 91.1807 319.5 83.7899 363.928 103.888C391.167 116.211 413.478 129.967 401.845 155.911C392.586 176.563 392.051 198.597 380.612 218.898C351.348 270.835 305.513 316.701 257.209 361.179C296.688 413.45 326.569 469.826 348.154 528.235C377.507 607.663 293.073 680.464 197.396 704.832C122.18 723.989 83.0354 697.265 72.4204 642.079C60.9659 582.528 91.5206 524.152 135.515 476.446C171.852 437.043 215.453 399.629 257.209 361.179C242.986 342.348 227.518 324.049 210.742 306.38Z" fill="#9747FF"/>
</g>
<defs>
<filter id="filter0_f_31_166" x="0" y="0" width="475" height="781" filterUnits="userSpaceOnUse" color-interpolation-filters="sRGB">
<feFlood flood-opacity="0" result="BackgroundImageFix"/>
<feBlend mode="normal" in="SourceGraphic" in2="BackgroundImageFix" result="shape"/>
<feGaussianBlur stdDeviation="35" result="effect1_foregroundBlur_31_166"/>
</filter>
</defs>
</svg>
