<svg width="830" height="528" viewBox="0 0 830 528" fill="none" xmlns="http://www.w3.org/2000/svg">
<g filter="url(#filter0_f_31_174)">
<path d="M755.048 250.555C729.585 202.883 704.541 206.587 671.833 160.024C655.87 137.301 636.502 109.896 607.539 93.157C537.269 52.5452 471.818 72.5164 429.506 102.711C397.803 125.335 374.671 144.879 320.614 134C260.917 121.987 195.207 105.427 153.291 133.439C113.581 159.976 74.4808 206.704 70.4965 252.792C68.1363 280.094 95.865 297.198 119.992 320.25C157.193 355.793 183.897 407.504 229.588 436.831C275.223 466.122 330.793 461.82 365.057 443.122C402.317 422.789 426.228 390.411 464.676 370.65C492.208 356.499 507.052 329.431 539.644 320.288C561.659 314.112 583.341 328.457 606.467 329.787C650.881 332.34 688.814 347.634 729.266 335.948C768.959 324.482 759.632 282.557 755.048 250.555Z" fill="#371761" fill-opacity="0.71"/>
</g>
<defs>
<filter id="filter0_f_31_174" x="0.355591" y="0.27887" width="829.031" height="527.701" filterUnits="userSpaceOnUse" color-interpolation-filters="sRGB">
<feFlood flood-opacity="0" result="BackgroundImageFix"/>
<feBlend mode="normal" in="SourceGraphic" in2="BackgroundImageFix" result="shape"/>
<feGaussianBlur stdDeviation="35" result="effect1_foregroundBlur_31_174"/>
</filter>
</defs>
</svg>
